# xmcd
#
# Track frame offsets:
#	150
#	12601
#	30994
#	47107
#	58978
#	72999
#	90054
#	102911
#	116042
#	131542
#	144320
#	153764
#
# Disc length: 2310
#
# Revision: 1
# Processed by: cddbd v1.5.1PL0 Copyright (c) Steve Scherf et al.
# Submitted via: VisiTrax 2.9.10.220 - For more info visit www.synapsa.com
# Normalized: r0:DSETVAR1
#
DISCID=9909040c
DTITLE=Various Artist - The History of American Music: The Blues
DYEAR=2004
DGENRE=Early Blues
TTITLE0=Muddy Waters - All Aborad
TTITLE1=Howlin' Wolf (Live) - Howlin' For My Darlin'
TTITLE2=Willie Dixon - Lonesome Bedroom Blues
TTITLE3=Elmore James - Make My Dreams Come True
TTITLE4=Big Bill Broonzy - Mistreatin' Mama Blues
TTITLE5=Big Maybelle (with the blues Band) - Let's Roll It
TTITLE6=Meade "Lux" Jewis - Honky Tonk Train Blues
TTITLE7=Memphis Slim - Memphis Slim U.S.A.
TTITLE8=Bessie Smith - T'ain't Nobody's Business If I Do
TTITLE9=Roosevelt Sykes - Night Tome Is The Right Time
TTITLE10=Lowell Fulson - Everyday I Have The Blues
TTITLE11=Jimmy Witherspoon (Live) - Roll "Em Pete
EXTD=
EXTT0=
EXTT1=
EXTT2=
EXTT3=
EXTT4=
EXTT5=
EXTT6=
EXTT7=
EXTT8=
EXTT9=
EXTT10=
EXTT11=
PLAYORDER=
